<?xml version="1.0" encoding="utf-8"?>
<!-- Generator: Adobe Illustrator 24.1.0, SVG Export Plug-In . SVG Version: 6.00 Build 0)  -->
<svg version="1.1" id="Layer_1" xmlns="http://www.w3.org/2000/svg" xmlns:xlink="http://www.w3.org/1999/xlink" x="0px" y="0px"
	 viewBox="0 0 1190.5 400.3" style="enable-background:new 0 0 1190.5 400.3;" xml:space="preserve">
<style type="text/css">
	.st0{fill:#FFFFFF;}
</style>
<g>
	<g>
		<path class="st0" d="M1035.9,138.2h-4.5v-2.2h11.4v2.2h-4.5v14.7h-2.3V138.2z M1046,135.9h2.6l4.9,8.7l4.9-8.7h2.5v16.9h-2.3
			v-12.9l-5,9h-0.3l-5-9v12.9h-2.3V135.9z"/>
	</g>
	<rect x="281.7" y="135.8" class="st0" width="32.9" height="127.9"/>
	<polygon class="st0" points="599.9,234.6 644.2,234.6 644.2,263.7 566.5,263.7 566.5,135.8 599.9,135.8 	"/>
	<polygon class="st0" points="654.9,135.8 739,135.8 739,164.9 687.8,164.9 687.8,186.1 736.7,186.1 736.7,213 687.8,213 
		687.8,234.6 739.1,234.6 739.1,263.7 654.9,263.7 	"/>
	<path class="st0" d="M939.8,197.3l45.4-61.5h-46.6l-42,58.9v-58.9h-40.8v127.9h40.8v-58.9l72.5,93.5
		c-17.8,11.1-39.3,17.4-62.5,17.4c-65.8,0-116-50.1-116-116c0-65.8,50.1-115.9,116-115.9c65.8,0,116,50.1,116,115.9
		c0,27.7-9,52.4-23.8,71.8L939.8,197.3z"/>
	<path class="st0" d="M403.2,215c13-5.4,23.7-18.1,23.7-36.9c0-28.1-20-42.3-56-42.3h-41.1v127.9h32.9v-53.6l34.2,53.6h38.9
		L403.2,215z M372,201.5h-9.2V163h9.4c13.4,0,22.1,5.9,22.1,18.9C394.3,195.1,385,201.5,372,201.5z"/>
	<path class="st0" d="M215.6,163.8c-20.5,0-34.7,16.3-34.7,35.9c0,19.7,14.2,36,34.7,36c14,0,24.5-7.5,31.1-17.8l25.4,16.6
		c-11.7,19.1-32.2,31.5-57.2,31.5c-38.7,0-67.2-28.9-67.2-66.3c0-37.3,28.5-66.2,67.2-66.2c25,0,45.9,11.8,57.6,31.3l-26,17.1
		C239.5,171,229.6,163.8,215.6,163.8L215.6,163.8z"/>
	<path class="st0" d="M501.4,163.8c-20.5,0-34.7,16.3-34.7,35.9c0,19.7,14.2,36,34.7,36c14,0,24.5-7.5,31.1-17.8l25.4,16.6
		c-11.7,19.1-32.2,31.5-57.2,31.5c-38.7,0-67.2-28.9-67.2-66.3c0-37.3,28.5-66.2,67.2-66.2c25,0,45.9,11.8,57.6,31.3l-26,17.1
		C525.3,171,515.3,163.8,501.4,163.8z"/>
</g>
</svg>
