<?xml version="1.0" encoding="utf-8"?>
<!-- Generator: Adobe Illustrator 25.3.0, SVG Export Plug-In . SVG Version: 6.00 Build 0)  -->
<svg version="1.1" id="Layer_1" xmlns="http://www.w3.org/2000/svg" xmlns:xlink="http://www.w3.org/1999/xlink" x="0px" y="0px"
	 viewBox="0 0 375 124" style="enable-background:new 0 0 375 124;" xml:space="preserve">
<style type="text/css">
	.st0{enable-background:new    ;}
	.st1{fill:#dc291e;}
</style>
<g class="st0">
	<path class="st1" d="M6.1,87v-0.2c0-12.9,10.1-24.1,25.1-24.1c10.1,0,17.2,5.2,20.8,12.7l-13.7,7.7c-1.6-2.9-3.6-4.6-6.7-4.6
		c-4,0-7.1,3.5-7.1,8.1v0.2c0,4.8,3,8.2,6.8,8.2c3.4,0,5.3-1.7,7.1-4.6l13.9,7.9c-4.1,7.7-11.1,12.5-22,12.5
		C16.2,110.9,6.1,99.8,6.1,87z"/>
	<path class="st1" d="M52.5,86.9v-0.2c0-13,10.8-24.1,25.9-24.1c15.1,0,25.7,10.9,25.7,23.9v0.2c0,13-10.8,24-25.9,24
		C63.2,110.8,52.5,99.8,52.5,86.9z M85.8,86.9v-0.2c0-4.5-3.4-8.2-7.6-8.2c-4.3,0-7.4,3.6-7.4,8v0.2c0,4.5,3.4,8.2,7.6,8.2
		C82.7,94.9,85.8,91.3,85.8,86.9z"/>
	<path class="st1" d="M108.1,94V63.8h19.1v24.1c0,4,2.4,6.2,5.2,6.2c2.9,0,5.5-2.3,5.5-6.2V63.8h19.1v45.9h-19.1v-6.1
		c-2.9,3.8-7.6,7.2-14,7.2C114.1,110.8,108.1,104.4,108.1,94z"/>
	<path class="st1" d="M162.6,63.8h19.1v5.6c3.1-3.4,6.6-6.7,13.6-6.7c11.1,0,19.8,9.7,19.8,23.7v0.2c0,14.5-8.7,24.2-19.6,24.2
		c-7,0-10.8-3-13.8-6.3v18.7h-19.1V63.8z M196.6,86.8v-0.2c0-4.6-3.3-8.2-7.7-8.2c-4.4,0-7.7,3.6-7.7,8.2v0.2c0,4.5,3.3,8.2,7.7,8.2
		C193.3,95.1,196.6,91.4,196.6,86.8z"/>
	<path class="st1" d="M218,86.9v-0.2c0-13,10.8-24.1,25.9-24.1c15.1,0,25.7,10.9,25.7,23.9v0.2c0,13-10.8,24-25.9,24
		C228.7,110.8,218,99.8,218,86.9z M251.3,86.9v-0.2c0-4.5-3.4-8.2-7.6-8.2c-4.3,0-7.4,3.6-7.4,8v0.2c0,4.5,3.4,8.2,7.6,8.2
		C248.2,94.9,251.3,91.3,251.3,86.9z"/>
	<path class="st1" d="M274,63.8H293v6.4c2.9-3.8,7.6-7.5,14-7.5c9.7,0,15.7,6.4,15.7,16.7v30.3h-19.1V85.5c0-4-2.4-6.2-5.2-6.2
		c-2.9,0-5.5,2.3-5.5,6.2v24.1H274V63.8z"/>
	<path class="st1" d="M324.9,104.1l6.5-10.8c5.5,3.4,11.8,5.1,17,5.1c1.8,0,2.8-0.4,2.8-1.5v-0.2c0-0.9-0.8-1.5-5.5-2.7
		c-11.6-2.9-18.8-6-18.8-15.5v-0.2c0-10.1,8.1-15.7,20-15.7c7.6,0,15.1,1.9,20.6,5.3l-6.1,11.4c-4.9-2.7-10.8-4.3-14.6-4.3
		c-1.8,0-2.7,0.5-2.7,1.4v0.2c0,0.9,1,1.5,5.6,2.7c11.6,2.9,18.6,6.1,18.6,15.5V95c0,10-7.5,15.8-19.9,15.8
		C339.5,110.8,331.5,108.5,324.9,104.1z"/>
</g>
<g>
	<g>
		<g>
			<path class="st1" d="M286.4,14.2h-1v-0.5h2.6v0.5h-1v3.4h-0.5V14.2z M288.7,13.7h0.6l1.1,2l1.1-2h0.6v3.9h-0.5v-3l-1.2,2.1h-0.1
				l-1.2-2.1v3h-0.5V13.7z"/>
		</g>
		<rect x="113.6" y="13.6" class="st1" width="7.5" height="29.3"/>
		<polygon class="st1" points="186.5,36.3 196.6,36.3 196.6,42.9 178.8,42.9 178.8,13.6 186.5,13.6 		"/>
		<polygon class="st1" points="199.1,13.6 218.4,13.6 218.4,20.3 206.6,20.3 206.6,25.2 217.8,25.2 217.8,31.3 206.6,31.3 
			206.6,36.3 218.4,36.3 218.4,42.9 199.1,42.9 		"/>
		<path class="st1" d="M264.4,27.7l10.4-14.1h-10.7l-9.6,13.5V13.6h-9.3v29.3h9.3V29.4l16.6,21.4c-4.1,2.5-9,4-14.3,4
			c-15.1,0-26.6-11.5-26.6-26.6c0-15.1,11.5-26.6,26.6-26.6c15.1,0,26.6,11.5,26.6,26.6c0,6.3-2.1,12-5.5,16.5L264.4,27.7z"/>
		<path class="st1" d="M141.4,31.8c3-1.2,5.4-4.2,5.4-8.4c0-6.4-4.6-9.7-12.8-9.7h-9.4v29.3h7.5V30.7l7.8,12.3h8.9L141.4,31.8z
			 M134.3,28.7h-2.1v-8.8h2.2c3.1,0,5.1,1.3,5.1,4.3C139.4,27.2,137.2,28.7,134.3,28.7z"/>
		<path class="st1" d="M98.4,20c-4.7,0-8,3.7-8,8.2c0,4.5,3.3,8.2,8,8.2c3.2,0,5.6-1.7,7.1-4.1l5.8,3.8c-2.7,4.4-7.4,7.2-13.1,7.2
			c-8.9,0-15.4-6.6-15.4-15.2c0-8.5,6.5-15.2,15.4-15.2c5.7,0,10.5,2.7,13.2,7.2l-6,3.9C103.9,21.7,101.6,20,98.4,20L98.4,20z"/>
		<path class="st1" d="M163.9,20c-4.7,0-8,3.7-8,8.2c0,4.5,3.3,8.2,8,8.2c3.2,0,5.6-1.7,7.1-4.1l5.8,3.8c-2.7,4.4-7.4,7.2-13.1,7.2
			c-8.9,0-15.4-6.6-15.4-15.2c0-8.5,6.5-15.2,15.4-15.2c5.7,0,10.5,2.7,13.2,7.2l-6,3.9C169.4,21.7,167.1,20,163.9,20z"/>
	</g>
</g>
</svg>
